<?xml version="1.0" encoding="UTF-8"?>

<svg id="Capa_1" enable-background="new 0 0 511.999 511.999" width="50px" height="39px" viewBox="0 0 511.999 511.999" xmlns="http://www.w3.org/2000/svg"><g><path d="m437.013 437.018c-13.1 13.11-27.28 24.49-42.24 34.16l-.01.01c-90.6 26.63-186.94 26.63-277.53-.01-14.97-9.67-29.14-21.05-42.25-34.16-32.69-32.68-54.68-72-65.99-113.62-17.5-64.36-9.45-134.21 24.15-193.51.04-.08.09-.16.14-.23 11.11-19.57 25.01-37.99 41.7-54.68 67.28-67.29 162.72-89.29 248.42-65.99 41.62 11.32 80.93 33.31 113.61 65.99 16.74 16.73 30.67 35.21 41.79 54.84.01.02.03.04.04.06 55.34 97.65 41.4 223.92-41.83 307.14z" fill="#24579e"/><path d="m437.013 437.018c-13.1 13.11-27.28 24.49-42.24 34.16l-.01.01c-90.6 26.63-186.94 26.63-277.53-.01-14.97-9.67-29.14-21.05-42.25-34.16-32.69-32.68-54.68-72-65.99-113.62-17.5-64.36-9.45-134.21 24.15-193.51.04-.08.09-.16.14-.23.14-.22.27-.44.39-.66 44.12 77.07 127.16 129 222.32 129s178.2-51.93 222.32-129c.16.27.32.55.49.82.01.02.03.04.04.06 55.34 97.65 41.4 223.92-41.83 307.14z" fill="#194189"/><g><path d="m56.271 338.4v27.195h118.986v-49.504h-118.986z" fill="#61e1fe"/><path d="m336.74 338.4v27.195h118.985v-49.504h-118.985z" fill="#01c2f2"/><path d="m255.993 511.998c-48.33 0-96.67-13.6-138.77-40.82v-105.58l68.31-14.29c23.24-4.86 46.85-7.29 70.46-7.29l1.69 2.65c32.29 50.57 31.62 115.43-1.69 165.33z" fill="#fff"/><path d="m255.993 324.548c-29.79 0-59.58-3.87-88.62-11.6l-50.15-13.37v38.82h-60.95c-6.61 0-12.41-3.4-15.81-8.53-2.01-3.04-3.18-6.68-3.17-10.59.02-28.35 5.87-56.12 16.84-81.64 11.02-25.57 27.18-48.92 47.82-68.46l24.44-23.15c9.86-9.32 21.19-16.76 33.44-22.07 27.88 23.13 62.05 34.6 96.16 34.43l.42.69c30.65 50.94 30.49 114.69-.42 165.47z" fill="#fff"/><path d="m394.766 365.599.01 105.57-.01.01c-42.09 27.22-90.43 40.82-138.77 40.82v-167.98c23.62 0 47.23 2.43 70.47 7.29z" fill="#c5f3ff"/><path d="m394.763 299.578-50.15 13.37c-29.03 7.73-58.82 11.6-88.62 11.6v-166.16c34.01-.15 67.97-11.87 95.6-35.11l.81-.69c15.97 6.34 30.49 16.23 42.37 29.14l17.24 52.82c10.63 32.56 4.14 68.28-17.25 95.03z" fill="#c5f3ff"/><path d="m117.228 299.579h277.54v66.02h-277.54z" fill="#00b1ff"/><path d="m255.998 299.579h138.77v66.02h-138.77z" fill="#0393f4"/><path d="m352.411 122.591c-7.927 46.068-48.083 81.133-96.414 81.126-47.843 0-87.688-34.358-96.167-79.762 7.913-3.43 16.207-5.968 24.727-7.559v.014c41.338 34.464 101.442 34.337 142.638-.297l.354-.297-.007-.007c8.548 1.323 16.885 3.607 24.869 6.782z" fill="#00b1ff"/><path d="m352.411 122.591c-7.927 46.068-48.083 81.133-96.414 81.126v-61.547c25.322-.064 50.615-8.754 71.199-26.057l.354-.297-.007-.007c8.547 1.323 16.884 3.607 24.868 6.782z" fill="#0393f4"/><path d="m327.548 115.819c-5.91 34.16-35.69 60.15-71.55 60.15-35.64 0-65.3-25.68-71.44-59.56 6.95-1.32 14.04-1.98 21.2-1.98h104.03c5.99 0 11.92.47 17.76 1.39z" fill="#194189"/><path d="m327.548 115.819c-5.91 34.16-35.69 60.15-71.55 60.15v-61.54h53.79c5.99 0 11.92.47 17.76 1.39z" fill="#0e2766"/><path d="m474.699 319.423c0 10.478-8.499 18.977-18.977 18.977h-60.952v-186.67l25.248 27.454c35.171 38.248 54.681 88.298 54.681 140.239z" fill="#61e1fe"/><path d="m117.227 154.719v183.681h-60.952c-10.481 0-18.977-8.496-18.977-18.977v-.002c0-56.837 23.382-111.171 64.657-150.245z" fill="#c5f3ff"/></g></g></svg>