<?xml version="1.0" standalone="no"?>
<!DOCTYPE svg PUBLIC "-//W3C//DTD SVG 20010904//EN"
 "http://www.w3.org/TR/2001/REC-SVG-20010904/DTD/svg10.dtd">
<svg version="1.0" xmlns="http://www.w3.org/2000/svg"
 width="96.000000pt" height="96.000000pt" viewBox="0 0 96.000000 96.000000"
 preserveAspectRatio="xMidYMid meet">

<g transform="translate(0.000000,96.000000) scale(0.100000,-0.100000)"
fill="#000000" stroke="none">
<path d="M132 854 c-14 -9 -22 -26 -22 -43 0 -17 -11 -38 -30 -56 -25 -24 -30
-36 -30 -77 0 -50 24 -88 55 -88 13 0 15 -33 15 -234 0 -200 2 -237 16 -250
13 -14 59 -16 344 -16 285 0 331 2 344 16 14 13 16 50 16 250 0 201 2 234 15
234 31 0 55 38 55 88 0 41 -5 53 -30 77 -19 18 -30 39 -30 56 0 57 -12 59
-370 59 -278 0 -329 -2 -348 -16z m692 -30 c3 -9 6 -24 6 -34 0 -9 7 -23 15
-30 8 -7 15 -16 15 -21 0 -5 -169 -9 -380 -9 -211 0 -380 4 -380 9 0 5 7 14
15 21 8 7 15 21 15 30 0 52 -13 50 350 50 299 0 339 -2 344 -16z m-654 -146
c0 -34 -24 -68 -48 -68 -27 0 -52 32 -52 67 l0 33 50 0 c49 0 50 0 50 -32z
m116 17 c10 -24 -4 -63 -26 -75 -27 -14 -58 3 -66 35 -10 41 1 55 46 55 27 0
43 -5 46 -15z m124 -17 c0 -34 -24 -68 -48 -68 -27 0 -52 32 -52 67 l0 33 50
0 c49 0 50 0 50 -32z m116 17 c10 -24 -4 -63 -26 -75 -27 -14 -58 3 -66 35
-10 41 1 55 46 55 27 0 43 -5 46 -15z m124 -17 c0 -34 -24 -68 -48 -68 -27 0
-52 32 -52 67 l0 33 50 0 c49 0 50 0 50 -32z m116 17 c10 -24 -4 -63 -26 -75
-27 -14 -58 3 -66 35 -10 41 1 55 46 55 27 0 43 -5 46 -15z m124 -17 c0 -34
-24 -68 -48 -68 -27 0 -52 32 -52 67 l0 33 50 0 c49 0 50 0 50 -32z m-659 -85
c15 -3 36 0 47 6 14 7 28 7 51 -2 23 -8 38 -9 61 0 22 8 38 8 60 0 22 -8 38
-8 60 0 22 8 38 8 60 0 22 -8 38 -8 60 0 22 8 38 8 60 0 22 -9 38 -8 61 0 59
22 59 21 59 -203 l0 -204 -70 0 -70 0 0 108 c0 71 -4 112 -12 120 -17 17 -339
17 -356 0 -8 -8 -12 -49 -12 -120 l0 -108 -70 0 -70 0 0 204 c0 210 2 223 40
209 8 -3 27 -8 41 -10z m417 -205 c3 -17 -10 -18 -167 -18 -136 0 -171 3 -171
13 0 8 3 17 7 21 4 3 79 5 167 4 144 -3 161 -5 164 -20z m-178 -153 l0 -115
-80 0 -80 0 0 115 0 115 80 0 80 0 0 -115z m180 0 l0 -115 -80 0 -80 0 0 115
0 115 80 0 80 0 0 -115z m-362 -92 c3 -22 0 -23 -67 -23 -69 0 -71 1 -71 25 0
26 1 26 68 23 61 -3 67 -5 70 -25z m522 2 c0 -24 -2 -25 -70 -25 -61 0 -70 2
-70 18 0 29 8 32 77 32 61 0 63 -1 63 -25z"/>
<path d="M630 795 c0 -8 7 -15 15 -15 8 0 15 7 15 15 0 8 -7 15 -15 15 -8 0
-15 -7 -15 -15z"/>
<path d="M690 795 c0 -8 7 -15 15 -15 8 0 15 7 15 15 0 8 -7 15 -15 15 -8 0
-15 -7 -15 -15z"/>
<path d="M750 795 c0 -8 7 -15 15 -15 8 0 15 7 15 15 0 8 -7 15 -15 15 -8 0
-15 -7 -15 -15z"/>
<path d="M350 480 c0 -6 50 -10 130 -10 80 0 130 4 130 10 0 6 -50 10 -130 10
-80 0 -130 -4 -130 -10z"/>
<path d="M420 230 c0 -11 7 -20 15 -20 8 0 15 9 15 20 0 11 -7 20 -15 20 -8 0
-15 -9 -15 -20z"/>
<path d="M510 230 c0 -11 7 -20 15 -20 8 0 15 9 15 20 0 11 -7 20 -15 20 -8 0
-15 -9 -15 -20z"/>
</g>
</svg>
